<?xml version="1.0" encoding="utf-8"?>
<!-- Generator: Adobe Illustrator 18.0.0, SVG Export Plug-In . SVG Version: 6.00 Build 0)  -->
<!DOCTYPE svg PUBLIC "-//W3C//DTD SVG 1.1//EN" "http://www.w3.org/Graphics/SVG/1.1/DTD/svg11.dtd">
<svg version="1.1" id="Ebene_2" xmlns="http://www.w3.org/2000/svg" xmlns:xlink="http://www.w3.org/1999/xlink" x="0px" y="0px"
	 viewBox="0 0 100 100" enable-background="new 0 0 100 100" xml:space="preserve">
<path fill="#989898" d="M97.5,0H83.8h-2.5H67.5H65H51.3h-2.5H35h-2.5H18.8h-2.5H2.5H0v2.5v95v2.5h2.5h13.8h2.5h13.8H35h13.8h2.5H65
	h2.5h13.8h2.5h13.8h2.5v-2.5v-95V0H97.5z M2.5,97.5v-95h13.8v95H2.5z M18.8,97.5v-95h13.8v95H18.8z M35,97.5v-95h13.8v95H35z
	 M51.3,97.5v-95H65v95H51.3z M67.5,97.5v-95h13.8v95H67.5z M97.5,97.5H83.8v-95h13.8V97.5z"/>
</svg>
